<svg width="331" height="384" viewBox="0 0 331 384" fill="none" xmlns="http://www.w3.org/2000/svg" class="absolute -bottom-16 right-0 hidden md:block"><path d="M260.791 1.90039C269.197 2.05172 276.88 3.04385 282.846 4.73242C285.829 5.57679 288.337 6.5821 290.277 7.71387C292.134 8.79657 293.378 9.94178 294.073 11.082C295.043 15.1402 294.556 20.8199 292.605 27.4316C290.632 34.1195 287.213 41.5909 282.559 48.9883C273.238 63.8038 259.094 78.1254 242.046 85.2793C221.61 93.854 206.137 95.6155 193.594 94.6592L191.318 94.4863L191.888 96.6963C195.118 109.244 196.584 123.157 195.57 140.375C195.548 140.759 195.509 141.142 195.456 141.522L195.266 142.896L196.591 143.308C257.306 162.144 329.163 231.683 329.163 329.065C329.163 386.812 319.047 438.837 293.612 476.383C268.251 513.819 227.52 537.066 165.724 537.066C103.928 537.066 63.1967 513.819 37.8359 476.383C12.4013 438.837 2.28613 386.812 2.28613 329.065C2.28616 271.796 27.1272 224.151 59.9883 190.767C92.8942 157.336 133.668 138.373 165.32 138.213L166.879 138.205L166.945 136.648L167.092 133.209L167.093 133.193V133.179C167.654 109.862 162.429 94.7922 152.788 75.8701L152.778 75.8525L148.076 66.8916L147.416 65.4883C144.647 58.7589 147.362 50.8864 153.911 47.3633L153.912 47.3643C160.458 43.8465 168.513 45.9176 172.603 51.9307L173.407 53.2549L173.937 54.2646L175.712 57.6494L176.933 54.0273C182.851 36.4566 193.883 20.9965 209.931 12.3184L210.698 11.9102C224.565 4.67086 243.951 1.59726 260.791 1.90039Z" stroke="white" stroke-opacity="0.6" stroke-width="3.26794"></path></svg>